<mxfile host="app.diagrams.net" modified="2021-08-04T13:53:48.474Z" agent="5.0 (Windows NT 10.0; Win64; x64) AppleWebKit/537.36 (KHTML, like Gecko) Chrome/92.0.4515.107 Safari/537.36" etag="9RiGn3c2kuP5qhygV_ex" version="14.9.4" type="github">
  <diagram id="ytLnccGYzAI3ZeDBL41Y" name="Page-1">
    <mxGraphModel dx="1422" dy="762" grid="0" gridSize="6" guides="0" tooltips="1" connect="0" arrows="0" fold="1" page="1" pageScale="1" pageWidth="850" pageHeight="1100" math="0" shadow="0">
      <root>
        <mxCell id="0" />
        <mxCell id="1" parent="0" />
        <mxCell id="tAp40WdVH69ufv_q9evl-47" value="" style="whiteSpace=wrap;html=1;sketch=0;strokeWidth=2;fillColor=none;gradientColor=#ffffff;opacity=20;perimeterSpacing=0;rounded=1;strokeColor=#000000;" parent="1" vertex="1">
          <mxGeometry x="102" y="19" width="730" height="531" as="geometry" />
        </mxCell>
        <mxCell id="tAp40WdVH69ufv_q9evl-34" value="" style="endArrow=none;html=1;" parent="1" edge="1">
          <mxGeometry width="50" height="50" relative="1" as="geometry">
            <mxPoint x="360" y="469" as="sourcePoint" />
            <mxPoint x="360" y="409" as="targetPoint" />
          </mxGeometry>
        </mxCell>
        <mxCell id="tAp40WdVH69ufv_q9evl-2" value="" style="shape=image;verticalLabelPosition=bottom;labelBackgroundColor=#ffffff;verticalAlign=top;aspect=fixed;imageAspect=0;image=data:image/png,iVBORw0KGgoAAAANSUhEUgAAAD8AAAA4CAYAAABKWiBnAAAIMUlEQVRoBe2ZbVCTVxbHGf2wzu4H3U9K/bar4zizY6ug0wqMipUB3xZQcH2lCKJCBQQUERAVWF6iIEhtQwsuRbYU6iJaIq5icXcBIQrKi6GCIC+BIFghb5CY8N+5F+9jAhGXDklmljwzT557zz333vM759zzJBMrzODLagazwwI/U6Nvibwl8jPQA5a0n4FBp8iWyFsiPwM9YEn7GRh0S8GzpL0l7WegByxprxf0UQC6t96gfkej0aC75wWetnXh6bMuyBXDnMJ3RXeojBO8aRRcL8e1m/8ZL55S/2LWVTT+3D6lOYaUJ0T+9E3APg1w+QrYyG4+sP4LwDcf0GrfLvNzaxeWrfOGm3cktuw7gU82H8bte0Lqu8PHz+Ne1SOqnH/tLjcp5PQXiEm+zPV/TWPz3hMovVfzP029VS7E885eg7oT4KMFwG+PAQtPAb87Ntb+IAaYFwlsG2dzbUMLHD2Ocgt/W1iK9R4htF9dK0L/y0FkXvkRSx32IpVfgJ6+ASRczENcai5++LEcsef/hraOHqpf9aAJLW3dtK1+/Rr/LBdCOTxC+xXCRsSl5CAlsxAyuQL7jsSjrKKWjpWWC1FdJ6JtQdl9nOVl42rJPdp/1NiKVS4H4RWUAMHd+1Sm+zEB/vs6YN4JwPYc8HUlkH0f+Dj+FX6zswMhea905+JR0zOs2xaMrp5+dIj7kJiRhxPxfKqz1eskyise4tLlItg4+SDyr3x0ifuQcbkIyz/1oSDRSVmw2xoAqUyBg+Hn8c2V63TuoFQOe9fPoVAokV98F7bOfki+9B2SL+VD0vcSnwUloL65HYI7Vfhksz/aO3vx9ZUb2OoVga++LYbLnnDwr9zAg8fNsNt8GDsPnUb+tTt6tpPOBPgHncCCaGBpwltdm4jnsFpbg/Ri/fQRtXRiqcM+eByIwTbfaKzY4IMbtyroxB2HzqCmtgkarRbbD5ziFjvFy0ZgVBrX9w1Nxj8E/0I0Lxu5haVUPiRTYItXBCR9A9i0Jxx1jS2cPmn4hCTieDyf7tvV84IeM/s/f45bP9VA3DuAIsG/8fGmQ3TOsdgvUfpTtd581pkAL5ECf0oErKMBfgVQ8liND4L7MMuzGXceydg8+qxrbIXTjlBONvDLIBy3B6O37yW8AhNQ/bARvwxK4bY/CqNvikVkUhZS+IXcnLgLOTRKUUnfIL/oNpUPj6jguj8SrW1dcPWOhEL5tpAShcPh52D9oRvOpuRQfalciVUuh+Abkgyfo0nwDkrAsbNf0rEjUWm4fstwgZ0ArxkF1lwErKOA+VHAvDAVfh/0CnP9e9EqUdMF2UdtQyvWuAXSc0jOIjmzJPod3RLsORKPKmEDZIphOLgeQadYgtHRUZxJyaHR1Gq1UKtfY4NnCGrqRIhNyUEML5suXSFswEeO3lAqR7A7IBYp/O/ZliDziOzG7Ups941GetZVOkYy5e9vnEcEZC9yHTx+DqmZBVCp9W0nYxPgiTDgB+CPscBHycCHycAfYlSwSxyCUjW2IF0VQEubGCs+9cUGz6P0JsXlQmYBHSYRqHrQSNsxvMtY5eSLJ0/bkZ1/E1v2RsAvjId124IQduYS1Wlt78b67cHwOHAKAScvwPWzk1Aqh9H6XAynnWHYtDcc7vuj0NElQUDEBTxsaMHgkBxr3INoMRO1dGDDjlB67p3/EgZ+7lj9qBQ2YoXTAcTwspjZ3NMgvEINkPR/IRu7+6TAoJKbwzW0Gi2t6GJJP33fk7PKriGpnEaW9UmhUqnUNJqj2lGQs/pk3LuazCdFilR7kuqvNRo2HQ2iZxA9fQ6NRksLJFmLXCMjKnT39tM2yYrHTS2of/IMymEVN1cmV2Lg5SDXZw2D8Gzw//1pNvjhYf0iZg5HmwU+LS0N1tbWcHd3h0r1Nj1N7QCTw8fFxcHKygoLFiygTzs7O8hk+q9QUznBpPDx8fEU2MHBAUNDQ+DxeGZ1gMngWcQJuFwu54LL5ObIAJPAM8DFixdz0LoNNm5qBxgdnoHNnj0bs2bNQmZmpi4312Z6pnSAUeEZ0Nq1a1FfX4/ly5fTM56amorKykp0dnZy8KTB9E3lAKPBMxB7e3vujA8MDGDlypXUAaTiz507F2VlZWZzgFHgDYEzwoKCAg6eOMDNzY0NcU8239gZMO3w7HWmG3GOCqDpTqDZTb7oGLrYOsZ0wLTCM4PfBc4gk5KSOHjihIyMDDak92QZQNZTKg38stLTnnpn2uAlEgkFcnFxwfu+t4vFYqobHBwMR0dH2t64cSNcXV0n1ADyVZg4KCwsbOp075kxbfDd3d3UyF27dr1nS0AkElHd9PR0GtGFCxfSPoGcM2cOyFrsKiwspGN+fn5MNG3PaYMnFgUEBFBDPTw8JjWwubmZ6pG0JteyZcs4eOIAoVBI5Tk5OVS+ZMkS9PeP/WafdOEpDk4rPNnb39//vQ4g73cCmZiYSM0lZ570ye3s7Exlubm5tL9o0SK9TJgi36Tq0w5PdpvMAWq1Grt37+bAmpqaqIHV1dUQCAS0zcDJ12HdIzApya8YNAo8seNdDiguLuaiTCI9/ojk5eVxjjEmOLHRaPC6DvD09OTiUlJSogevWyDZGTdmqnOGGBte1wG6EQ4MDMT8+fOxevVqtLW1UXtMDU42NWrkmZfZEdDNAKlUyobBwI19xrkN3zRMAk/2MuQAIjcXONnbZPC6DmBHwJTFjew//jIpPNmcZYCNjQ0tfKZOdV0HmByebB4aGkrBbW1t0dur/8+vrnHGbpsFnkCRHzfsz0RjQ75rfbPBv8sgU8r/C7VvxOip8wxoAAAAAElFTkSuQmCC;" parent="1" vertex="1">
          <mxGeometry x="130" y="290" width="63" height="56" as="geometry" />
        </mxCell>
        <mxCell id="tAp40WdVH69ufv_q9evl-4" value="" style="endArrow=none;dashed=1;html=1;dashPattern=1 3;strokeWidth=2;exitX=0.5;exitY=0;exitDx=0;exitDy=0;" parent="1" source="tAp40WdVH69ufv_q9evl-2" edge="1">
          <mxGeometry width="50" height="50" relative="1" as="geometry">
            <mxPoint x="400" y="390" as="sourcePoint" />
            <mxPoint x="160" y="200" as="targetPoint" />
          </mxGeometry>
        </mxCell>
        <mxCell id="tAp40WdVH69ufv_q9evl-5" value="" style="endArrow=classic;html=1;entryX=0;entryY=0.5;entryDx=0;entryDy=0;" parent="1" target="tAp40WdVH69ufv_q9evl-7" edge="1">
          <mxGeometry width="50" height="50" relative="1" as="geometry">
            <mxPoint x="160" y="200" as="sourcePoint" />
            <mxPoint x="280" y="200" as="targetPoint" />
          </mxGeometry>
        </mxCell>
        <mxCell id="tAp40WdVH69ufv_q9evl-7" value="" style="shape=image;verticalLabelPosition=bottom;labelBackgroundColor=#ffffff;verticalAlign=top;aspect=fixed;imageAspect=0;image=data:image/png,iVBORw0KGgoAAAANSUhEUgAAAEgAAAA7CAYAAADYW8woAAARWklEQVR4Ae1be1hU5brf/+7znP3H+ePss3cpMFdEbgMICgg6wDAzWpampZmX0Cxl0MzMSuXiJVPT7VNZqUfLLO+ZdzMFBkgps8ALwwyXAURFucjAADPrNr/zvN+AQkm2z0HcdlzPs1iLWd/6Lr/v916+93vXn/Do+E0E/vSbT/vxocfj6cfWfn9T/xIASR5AoD//gke/AeTxSBBFARA4SDwHSRAQGhyCIJU//GVyBPj4IFwTDpVMgYoqO3i3Cy5ehCRJwANkV78AROBInae9phYaTTheXbgIL0yehJb6UjRW/Yz2K0Voqy2G83oJUl9+ETqdHoIgguNFPEjxu68ASZIHJDgeScKV63WIjx+B02eLEB0egebrJWgsL0RjaQ6cVjPqL+fAUZqLdlsuHJYcOCryERIcgu9/ugAC+EEd9w0gD4Hj8TAREQQe2tg4nC74AZOmTENzbTFarQVwlprRUmpGqyWXgdRiy8ety9loZr+Zcau2BIHqIIjCHxAgYg/P8xBECSqFEtt37sNPJZWIihmGeks+WktzUFlcgACZEi+MfwKOkhy0Ws1w2uhZNi7lH0Bz1Xd4Le0VbN/91YMiEO4fgzwA53Yhr+AsnhnzNN5cugxvpr8DncEIhzUfzZYcrFq2GK3WPDRZchibWm1mOK15cFpz0FJKrKJ7M0Y/8SR4po+EfgfqvgFEDBIFEaPHjUPe98V4K2MlFme8g9WZC5kINVvMDBQSJ7c1D4d2bYLTmstE7mLeAdwqyUGz1YxdWzdgvmkWq4vj+T8AQJLE9A6Bs2RJBmIjo3Ds5Cmkr1iLpcvexbe7P0VbWT5cVjMTqRZLLhz2c7hSUgh70Um0WMxYsXgBU9Zt9h9QWWTGxlVLsPfIMabs+xuhPmcQKWdBFDE9ZSbOJD2Ff4+KQEHOMbTftCBQNQjpby+Ao6wADZeJLblosZpxcv92aAIDUPHzN2guzcatUjNmp0yBw2qGUJOPresy8XGcHh9v/by/8el7HSRKEg4eOYpxMXGo1Y6CITEBeacO4fmxT+HkwU/x+ryXccvitVwMoFIy69lwkLm35cNBFsyWi4vZezB/ziw0l+Zi+ZIFKE8ehYQhEQ8/QG7OjfCwCFyPHwO73gjViDg0lBSgxZaLFluBlzXEnG5nm9XMfCAy+Rw5i5ZvmT76IOttOKzZ0IVFMIAsCUkYqgkHzwtodIv9Alafi9iRI0dRF/sErMnJsOsMeG9kMg7v2Yp2ywk4K76Dw5LLLBdZry6QiDXtlmw0lZixPn0RzhzbDl1CPOounUCjNRuThsWgymCALXkU0hOTUHThMnmfDw9AkiiAEwTW6b/6B+DaCANqkgyoTPael5KTERIVBcFRxqxTEzmJJTkg5tyy5cNlP4sbltMI9PeH8rGBUPr4IDl+OIzaJNSX5ODKyDt1VSQZEBkVBUnqH4vWJwwSRZEp5iZHK4wxsSjXGVBJZydA1UkGfJmgQ96pw3DYCtBcchorFs9HgyWX6ZiOUjMWznsZ9cUn0F5+Bk57ARy2PDSXmKEb8wQqDMm36yo3GPFvMTFo5/rHJ+oTgCRJhCjy+OrQEayM1aJ81ChU6vV3BpU4GmVGPf5Do0F79Tk0W/LQaivA0Z0fMV1DYtdWaob5wDbs+/R9fLNvExovncIC04tYNTwe1bo7dZXp9PhMm4SOflp+9AlAtJikJcX61WuQp+0cjM4IEgebwQCrwYgynQFBkcNw8ujncFjzUH/xFJyVeZgzZxZamGedjSZilC0XTZcLkDYjBZpxLyA8OAAVSaNRlWRAxajRjJ2FegMkz0OmpEVBwNo1a3FGa2DWq1pnRKneiMIYA5Ijw6F49V1o392JKMMYvGyajR0fb8DhzzZg0tgnMVgTgRmTJ2Neagp0Wi1iY2KQMCwWgVHRCFr+GSJihyMjLg5lycmo0hnxo8EAPEwA0apdlERs2/45tsVrUaZLRoVuFAzR0dA8/RwCV++FZtUXUC1cg7+nZiDgmal4c2k6AofH4Ua8EbXa0VgcPwLBcbGI02phiXsCVUlGHInWwj9tGdSZWxEwyA8VeiPK9EYcTzRAoEBaPxx9ImIU9RM9HpRXVmF07HDUJI7CuOhhUC3+CCFLN0E2byVkpkwoUtMhN2Xi8c77vwyPQ02SEZV6AyqS9Vg6Mh5fxmlxOXE0E6uzI3QYYMrAAFMmhkTHoCZBD1LSupjofosy9glAtLSgE6KE/1QoYU82IF+rQ+iUuRiYuQWytEwMTF3KBvr43CwMMKXjb3Oz8PeUeShPNsKeYEBlgh5h2mRUVF9D4U/FGLd8C7SjJ+CvpgwEz3wDlxOSUZGohz1hFMKHx8Ml9k8Mu08A6s70NWvWe3VQogHK2BgEr94JP1PmnTM1HY+lLIDMlIUBaZl4Pi4WiUNjkHr0MuYcLkJNbS3aOjqQsiMP49ftxsC5GVDHxaNcb0SVXo9DcclIX7wETjfXvdn7dt/nAJHTaCTPV2dgIhP03td3wDFlMmBCZy6Az7xleCx1KR5Py8DzKzZj1hELTMet0BmNqLvZgNSDF+D7yhL4mTKwKi6BiVaFzoCAIRFw8yJcDytAgihg6tTp2DdSh2NJSVC9/i4eS8vEAFMWlKYMPJaWjqA33oU6LQsDTVnwnZuFgAnTEJ+kx8Ss95Gy6TD2HzyByNmLGMMGTp8Lq9aItfEjYAgJwYszXkI7AcQ/ZGa+i+MUKHOJIgJUalxONCAsXAO/xRvx51eWIDg1HaHhQ/BfsxZCOX8VBs3LhHpKKsL1T2NodCwiNWGIjIjEkKihiAoPR0jYEAyLjMTrS9PhdnPgODeuXqnF5m3bHl4GSTwPCnlIooR4Gmz0CAxa8Tn+ZsqA/5zFiHhmCsJDQ3HohBmiSME1nm0aigK950FDswPKJyciaNbb2LN7N7Zt3Y6rdY3Yf/AQHM2tIBGODBgMkX+Ilhpd7Ol+Je+aE0QEqlQIXrkDA1MzITelQ2HKgkI9mC1Nupfvuq++Wgf/BCP8Zi/G9GkpaG1rgcvFYf++fTh9OpvtlY1MTACt//rj6HMl3dVpch55joPazwfBK3ZgoCmDATQwLRPqiTPZzmpX2e7Xq9dvIm788/AxZWJ4TCxqqmtQVn0V5farsJVVwWa/gpCgIAi8u/tr9+3+vgFEPZZ4AUM0oYgIDcGAucuhmf8OfOe8jUGmDLQ72+86qOq6Jkx84SX4zstCRPgQWC9cAE9bR3IllH4yKOVKOFw8nO6HHCDaTqcdVRfHw93RAb1xNIKCNAicMQ/KlxbhzPmf7wrQjRtNePXVBXj91ddwsaQUPC9CEASIHAdawNO9JIogndUfx/1lUOcOBwElkchJHly/cRPfFZ5DgJ+iM8jW0yNubnbirbeWouhSOT7Y+DHcPA9J6KZvPLRjC/AP01rsn5lJtyDBI4gIDwllSxOBFxh4XXV0uHlkZi2HvaYOE56bxOLPnNg/C9OuPnS/3lcGdW+o694jcMyHsdirwQsCBI6HN8XBW8ItCDh49ASWrVgFQfSANgH+8OkvXeD88hqq9MdHGzfh+x9+RGVVNS5cLMGuvV9jxuw0FJ4v+mXxB/J/vzOo+yjb3O7ODBCPV/lKEtyCNzLAkq26F35A970CxAJStLUieZhXzGjeuWvaV5TnOR48WSSedkVE5oHfLZmM1LggCUzJU39EUtwP2lEkR8/N8XC2t6HV6USb04n2tjY0NDUyL7an7fnfTS+Z6o8+2YJB6gAofP2glMnvWhEF4yjbTOHjB6WvH4aEahjj7lq4j3/slUEeSUCDowMzZs6A3McXKpkcERoNS2eh2SMA/6+HQEyQJOQUFELh58ccwbvVScsWWloEKNWsTFhwSL8lMvwGQBI8ordjcl9fyH39sHv/odv9J9+GAvU0QNr2oTAHOXG0LUyLVWKHh7aDBEqiIudOAIFOuYo8R7rnjuk+e66IMUjhJ+vMSBMYILTgpYmgTUnKVRQECby7w9sGTVJneh8BTU6kyHPg2OR526eJpAgAJVRw1C+eZxaU+kypNDQGSvKicfR29A4Qda4ThLsBRLqAwp5lVhsmTpqEZydNRmVlFTjOqx/I32lobEJxSRkOHzsBwc3DUmbHhKlTcfz4Nz18n18BJIqoKK+ArdKOMns1mlqcoChB7bUbOHu+GLnmfAgCB7ebh6PViVKrDdk5ZpZDVHejEc9NnYZde/aDEylHSQBHXnjn5K1etw4pM1/C6bxCHDhwgOk/Aq63owdANFvEhq78QsYgQcAdgA7Dw9x8AY42F2NVWEgoY0OZtQwKmQxqhRIS72XIjJmzmWjKfWXQaRPR2tYOpSqA6RJiCySRMarwXBEGKVWsPnIcKRi24R8bEBMT6w2dEOt4HiqlP2OaJjgEAL3rwfKVa6GSK5gaGDokCg2NDrbIJX1Geo2sITF5csoMlgr4bUEhc1CJ5WqFirFaEDp6w6dn+gtR1msdJK9FIQbxvwaI6BoZRjnNcny2fQcTBycNvrNT9uoa1vl1Gz6BWq6Ev1IJj+hhM/nZl3uh9JVB4StjwPKSCGIQAUvv824OPxcV47+377ht+mlLidqcMn1mD4BILx37Np8BRGDQ5JJIvbd+HStHi1t6l6yun1zOyiUlJqGjww1IEn4uuuRN9hJ/J4MYjB4JDbeace3qNWbefwmQwHGMRSq5HEo/Od5a+Ab27d2Hr/btZ+fX+/ej6kot6+ya9RtZGUoOp0R6N8fh0NFTrKP+CiXTTbwoMIBogATScxOeBbErOmooC6DRbolEJp4XMDVlVk+AJBHHT+UzYAlcTiB9KGDT519AzfrnBYh0TmbWytsTSJND5V+cNp0BzzrXC4d+JWJVNTWMGdThCxYbmlwiBqv9oZbJceDgMdZpivPQ7BC11637h1cs4YGL45jyI6VKS4Y1733ABsSoTghJHhw+nusNW/h1MkgUkV94nrVJg7rV3MIAoncmPvssOgSPV0wAvPCiF6CwUA0TMVqiHDuZz9ogNnsn2IOtO3YycSUQyCiQ6hBcbtTerMeYseNYvwcpVOy99z7YyNjUCz49RYyQPn/+J/grVQgcFIA2lxstjpbbjTXUN4B0BO3DTxg3HmoyuzIFWto6IPAck/X6+kbs3v8VU/Cr175/GyD2KYbkwddHTt8GiPQI+ThnfiyGmvSIrx/TS2fOnIXcx8uoRYveQAfLtpfw/DSviNEnDPAIbA137GQea4MmjIAgXbVl+47bbCE9Rb+PjB/JQi+cSBZSwpzUOVDKZEhfuQLuDldv+PQEiCqiuPD4p8diz959uFhaDpmPD9MXH364kSm0rpoIpAXzX2MzTw2FacIRHBiMsWOeYnJdVHwRifHxDAxy8Pbs2oUOTsCkCePZOyRimz/+BHX1jXh55kz2jQaB9OEHG5l78ezkyaxdpVyB9z/8CF8dOOD9308Of6UaX3yxE1euXcf4sU8zxtG7mzdvQQcvwag3MJYQaJQvQGMaHDAYapUaZ86dR3XtNQbgsKHDGHjdXY6u8XVde4gYMYgUGmn4xsZmlFfYcf3ada9JJpp2DztIIhMpMrV1N+px5Vodmz0Xra+Yb+TNsvf6IhQ0c7GBU/1kcqku+qCFlO9tn4RMMVlJkbJFaOnhDZaxlGJRhMvlgofKkF/DcXB1JqpTVIAUNjvpyyF2T78JLGJAABDLqb0bN+tRU3sNjpZW5ldR/zo6fqcVI9SIRTRAgcIMJOksNOiB6BHhdt2hIpXjeA6iwDEZps+ZqIM0QApy0XOWeUbeMoFO9VCEkXezTlPHCCTmbJJoCN4ve9hOB/MAveVpcG63m4HPnDq2NvR68rT7TO3QRiKVo3s2hq5AHfWB1ni0biOnUKBy1I7YGRP3sLrZS7386cGgXsr8v/75EUD3mP5HAD0C6B4I3OPxIwY9AugeCNzj8SMGPQLoHgjc4/EjBt0DoP8BpruIDG5m2QAAAAAASUVORK5CYII=;" parent="1" vertex="1">
          <mxGeometry x="240" y="170.5" width="72" height="59" as="geometry" />
        </mxCell>
        <mxCell id="tAp40WdVH69ufv_q9evl-8" value="" style="shape=image;verticalLabelPosition=bottom;labelBackgroundColor=#ffffff;verticalAlign=top;aspect=fixed;imageAspect=0;image=data:image/png,iVBORw0KGgoAAAANSUhEUgAAADgAAAAwCAYAAABE1blzAAAK20lEQVRoBe2aCVBbdR7H/y2FJECXdp3acTzGjro669ja9ZjVHXdW3bq77nbsrrZ21eraWrfT0Wm1lpYbyhEgBAg9gIQblkKhK+UIR7gKAUII5Qz3VaBASThSua/vzvsHWKCBQoKOdszMm/e/fv/3+/x/x3v/90Jwn//Ifc6HnwF/6hb+QS04OT0DzfAo7gyP0IMpj09Nf69r+IMCxpW2YbuNGDt4BdjBk2K7bRoEEuX9AxhWWA9iK4ORoBVGvs0g9qVwTiq/fwBjFS0gdoVg8arB4lWC2MvBFVf9dAC7BobR0KlCY5cajbfUaOwZQGNXHy03d6nBTyvDRts8mPvWwdynFhvsisBNqfjpAO4X5oFtk4WtboXYyi2CuVUyLBy19V9yZTC3SYWZbTq2uMuxxb0YG0+ngZu8vIt2DwxhZHzCoAVY1ySzT1QEwq2FsW8TjP1aYeRUgE2eldq6oAUmbgqw3EvB9msB268J5FwZuOJKnQCTU1N42UuCF93T0Ts4pHPMahrXFfBgmBzEtQosfg1YPvVgnSsE26NcW/euBdtNDpZbCVjetWDxlSAOJfDJqNGpZ8oNJl5lIB5NeM0nE+MTkzrH3atRb8AZAEVNtyGpuoksZTtylO34g7cExs4l2Mwrx2Z+JTi2GTBzKcRmrwps9qqEqWMOTB1zaR9TN7KT4rOwPFyvaUdWdTsyKttQ3dlPdf4mrgTEox6cqFEQGxkiC+ruxaKzX2/A6akpPOWSRrOikXMxmMPkTDJ+4VYECw8FLDxLYWolxman67DwKIWF5w2Y2UlgZp9Jy0y/uVMujM6mYpOrAkbOchDLHBwQ5lFFD0XIQPht4IQOwsivAy95pIInLgM3uQxR0jrc1gzrBFraqD/g5ASe85aC8OrB8q4Dy7cRLOcisH3qwPZtAFvQrHVRXgXYPky9EWzGPbkKbdmnHmzPcpg4y8ASNFGXZtz7owg51fF0vALEowGcUA1Mg1Qgrgrq0sRRAWJTiAdtklHfpbX2UqiFdb0BmUl2+xZQQLZ3Pdi+TVpAJtYWAVZqAX0ZQIUWkCn7agFZLjKacNg+9TR+j0QrqH6y+g4YWWeDFaIBJ7AHnEsd4Ph3wlR4G4TXhF+5pGNwaHQhi86yXoAxJa0QZFTgUfskmLgWw4wrh7m7HOwzSTBzKYA5rSvAPptMY87cvQTm7goak0xcMmWmjYlJtpUY5h4KKmPikI9XPcTUDd/2v65dsKA+sC91gvi2gvCbQOwV2GadDEVLj06gpY1rBhwbG6fuQWwVMObXguNVBfbcwa8B26t6cZ2/sK4Em69c0F8NNpXRzsHhV2ODpxLETQni1wlO2B2whb0wcczH09xMvMrPxskYGVp7B5dyLFtfM+DoyCiedMsC8b9NFWCSwPoeGu18wf3gBKtBuDXY45eF0VHGHZncvbbfmgGZ7PmcZzaIoA2c4D5wgtTLHiYiNYyEy/evJMv0sQK6QSwzkFvTsTaqBaPXDMjIviPMB3GvXRHQRKjClggNHo0ZwsZA1bKLoBOSWTgmmTjdwH5R7gJ1117UC5CfXkmfMqhyOqzIEqlhHqaBW5oSmVIZ3hQPY2PAKiGD+7SZ0ruJxnqnWrN2qgUSegEyOwSWdTqM/bt1WLEPJsED2BI5jEBxEZIuh2N/5jCI/ypcddZyRn43QU6JIS5vXaCqfkW9AJlLfRCSD+JUBlOaZJjEoAE79A5IgArEow7kfDd+HXcHfxIPgbEoe4VY5QRpY9lU2AMjQRvI12IE5KzPTl9vwJbbg7A4kwjiXALiXg3iUgHiUITHXbJgn1CK/WmDIH4qkICV4Pq0HiBSgSPsoQtjYpmCcGmtfubSIaU3IDNXrLwZ209EwjVBjiuFdcir6cDQiPbpYmBsBs/H9oOcVy2x3izUrNU4ol5sYKxmJcUu1zRI62/pUFP/JoMAmcsyTzUHAnNQ3Hi3Yr0jM3graRDkggobAtUwZWJsNikZB/SA8BpArKV4yD4NLomlGBkb159kGUmDAZl5S2724VBIPj4W5SIgsxKFdR1o7+3HyPAQRoeHwJOp8bDwJt0MM6mf2OTDzFaC3/tkQ5BRCZUBG9pluOab1wVwbrbSNjX46dX4IqoIh0PzcTgsH19GSvHNZSkOhUrxnlAKZpdwuaiBvquZk/s+z+sKuFDRmZkZfDc2Cc3IOD1jZu2PWQvn07f8vQHqq9B6y60JUDM6gVsDq9tJr6Ro39AYVHfuvZdbaY7V9q0J8ESsHM/YJ8BQd3vPPwdv+mSsVkeDxq0J8MOQfGz/JhaYNiyeXvdKw/MuSQYpvlrhNQF+HlWEhy3jDAbc452Bl7gpq9XRoHHLAg6MjMMyXoHnnBLxrOM1OCaX4x3/HOywvjrvoszXIsYaT9p9i78IJJDUdi9Spq1vCEfDC/G0QwJ+45IE97QqjE5M0bELAaemZ2CbcANvCSQYm5iic4irb+Etnww8Yfct9ninI7FSuyecmJzGu4G5uJBTB8urCjzjkICdjgngZVQvuvZcRScgkwR2OV0DOSTCH30zsEcgAfksFOTTEOyedS1PiRLkYACesP0v9l3KxvbTV0A+EiGyuIXO3dCjwbaTl6ncXy9k4Xe8VJB3L8LuWhkOCnPximcqHSdr6cVOx2sg+/3pvZJpDMxvAPkgEA+fjcff/XPwmPVVkH8GIiCvHtMzMzA/EU11I8ci8Pb5LPyWm4IDoutzTIvOOgFPXpGDfCxCZm3X/ODc+m6wj0XgZW4KlJ39IIdD8ElIPqZn43F4fBKv89Nh+kUUBobHsfdiNjYfj4Sya2B+jozqTlS099EFYSzqkFQOk3+HY8fZOCSWt9Nxnf1D2PR5OD4Qad+PzgkfCS/ApmMRYB4mHrGKxwNfxaBi9iXx3BhdZ52Aj9tcxd5L2XeNf094HbvOJUKQqaSW6Vxyy5C3qUE+DUZYYRO2nIqBdWLZXXMwDfsDckA+CaZW2fB5OKoXLEK8opX2veKVhj9fzMYbAgk9v+yZSsd7pVfjoTNxOBVfonPupY06AR+1isc/Au9+VXAgKA+7nBPhywAeDUOPZmTRfGXtfdSNRXn1sPg6Bo7LfBrbez4TD56KRZC0AVu/isEL5xIxOKr9inSlpBXkX8HY7ZqEV91T8JJbMnXBPwskNHbFVR3Y+nUMPFN1f7RZpBCg+18WTLZkLiJvVc2PV9xUY8PhEHwRU4xm1R2Qj4PwZbRsvp+Jjb9dyKJupPpulMbtthPRaO///4NBSZsaberv8LafZD4Gcxt6aDy9wU+j8dXeNwRyJBRHwwvm52YKipZeWh+dmITx8Si4LbN4i4SWA+weHMGTVvE0zt4PysPB4DyQw6F4zDIOHbMKn0m4AXLAHy+4peDof2R4yj6BJp3zudqPJOUd/TA/HgnW8Sh8El6AvZdyQN73h2NSOfZdzMKzTtfmdYktbaN9+wJyaBuf8ZCDAdjpnIhj0TLsdEkC+VCIys5+TExN0/BwuHZjXn6lgk4XZQS6NCN0FR86fQXMcThMis7BxS4pym+g2faBry5TN/q27Oaia1V1DeLdS9nYdioGj5yJo7edweFxmt6PRBQuGuslUeJFbgq9jTAd0fIWvOCShAdOXsZu50SEFzWDuZ2MT07hNV4qooubF8kvV1kWcE6AyZJzmXKubel5YlJ771raPlefNOCvIgyQIb97Ahoy+Y9B9mfAH4MVDNHhvrfg/wA5latMGsrjVAAAAABJRU5ErkJggg==;fontStyle=1" parent="1" vertex="1">
          <mxGeometry x="340" y="286" width="56" height="48" as="geometry" />
        </mxCell>
        <mxCell id="tAp40WdVH69ufv_q9evl-9" value="" style="shape=image;verticalLabelPosition=bottom;labelBackgroundColor=#ffffff;verticalAlign=top;aspect=fixed;imageAspect=0;image=data:image/png,iVBORw0KGgoAAAANSUhEUgAAAIkAAAAlCAYAAAB2+spcAAASC0lEQVR4Ae1cB1RUyZp2d1/YNzvz1DGnMRBVQJAooBgw5zhm36hjjuiY85hQxwgqoigKZlRQUpNBQCQHQXLOSXLThG/PX2033dJER5+7p+sczq1b9ddfdet+t/7YdIC0SHeghR3oIKk/sCwYu8L3IbMyS1I3iquLUVNfI7Gvqcb3pbHIrcptqltie3lNucR2aePX3QGJIAnihkCOMxTmaRYSV3M8zhhh5RES+5pqJF4BJYFNdTdqv5thjYl+01GFqkZ90oavuwMSQUJLSC5PRkZlJiI/RKGUVyq2qoqaCqSUp6KspkysvbmbytpK1NbXNkci1vcy0x5WqQ9QW18n1i69+fo70CRIaCn0Uid6TceaoA3ClVXVcln9RLQxVgc2tAsJmqiYJ95GfFlCE70NzWHFETgZfaahQVr7t+9AsyCh1SWWJ2Ou3yI8Sn/KFns6+hyq66qRXJ6C1YHr8SzDtsWHqKqtwhTvWQgsDG6WtrKmEgYeE7AsYCXqpCdIs3v1NTtbBAkthsSNUfguPEh7DG5dtXB99fX1WBm4Dg/TnggV2ayqbDjnuOJeyn08SH2Mu8nWWBO0EYqOw3Aj8ZZwLFVExQ+B4mSMMRtDfUnlyeDW8U8tsUHSm6++A60CCa2KXujv707h6LsTeJr2DM7ZLmyxZgk3IeegjCVv/oVVb9dhvOdUqHF0hH/DOTrQcR0FfbexGOVhiGfptggoCMT+yMOwz3JiPEhfORlzBpxcF6RXZrC59kQcREJZ4lffEOmEjXeg1SARDCV9od9LGRh6TkFRdTF2he+HhoseNFx02Wmh6qwNDY4eBOAwcB8PTRc9jPGYwMYMdRoOBUcVyNgPwZYQI5CCuiJgNVxzPGCeZAF1F11kV+UIppNev4EdaDNIaM2nY85h4CtF/B59CvdTHmGIoxqm+8zBpThTcLJd4ZLtBrPEm/g1cAP03MbAKHQX4krjkcfNR2BhEEzir2Ou7yKoOGti5uv5eFsYBK88b6awxpbGSfWRbwAYoktoF0hI9KwP2gJZh6GwTnkAj1wv5DThKGvKIUc6SFxJPGJKYnE57ipuJ1uKrkta/4Z2oE0gIZ8JnQRUsquyMdpjAtM9fPJ8m30kiyRLbA3egfDiSJCyW1NXg5iS97gYa4KR7uMw1XvWFzs9qio/3xlXU1uLoqIPqPyEl6uHL46euoQjpy4hPjGl2T34v9zZKpDU1PNw9N1xHH73u5hjzSb9OYY4qWGEmwHOvb/AzGLBZpBFZJ/liKVvfoEqR5vpKKPcDbEiYBUW+i9nYmg4ZwSUnTRwKc6EDRO1nAR8Pud69vJN9JPTwW8HTreajV9AMM5cMENZWUNIICT8Hb7rOhgnzvLXSczOXjTH37ooQE1/GhSHG+LxM/tWzyGJsLj4A06eNQXN9a2VVoHkWPRJTPSejpr6WhRwC5l+IXiQdUGboeysAXXOCIz1mIRVgeuwLngzZr6ex9rIshnjMZH1kRI7wtUAum6j2SlE9MOcteCW68HYkSf3QuwVprsI+Lf3Ws3jQddwPn7oqQSF4YYoLCxuFaszF67j710HIze/UEifmpaJ1Rv3ws6eb9EVFZeg+0At7D7YAL5qboNrQDiwDZXE5DR0+MdAmN9+0IZRX4e0RZDw6mow0p1M1xdsRWuDNuFesrVwdaRzzHq9gCmh9PIJFFouI5nJS+CQ9EdiihRaJSd1psCW8EqE/CZ7z8D20F3sPq0irU2ufyETAL5vgtFDRouJg64DNGBjyze3BTQ1NbWoqmrww/B4PNTU1OD8ZXP0VtBFanomqqurQWATL/UICY9Cx76qsHf2YOKzto4fbiDa5NR0xLyPR2JyKurq68WHfrwrLStHTGwCoxEQvIuJR6e+w3HzzgO2Di6Xi7q6hpBETl4+QsOjkJiUKhgivH66zsqqKpSXVwBNzF9WXoHa2gbeQkZNVFoEST3qsTv8AJ5/9KyO8ZjEdIi0inQhy3xuAfOfkFlMJwr5SehKpi8BRtNFn5m2ZBZTn7brSMzwmYuT0cZi5u6tpDsMbNN95jLeNhnPmT9FOFEbKr8dOAVF9fEoLCqGmv50LFm5TWy0pfVT6I1fgLDIGKzbdgCqulMxe8kGyA0bC1mV0VDSngQ5lTFY8esO5OblQ2v0bLx4yQGdKkQzSGkUhmrxadZtPYCEpBQM0ZyI7gM18dNgPXQbpAntsXPh/zZUbN6LphYYpDwaveV10FNWByPGzcP9x7bs1BswZCQGq4+His4UyKsZgoBDZd/Rc+glp4N+irroPkgTMxauQXpGQ4R+3tKN2HvkDDy8/aFrOA+T56zEzys2Y/HKbQzEogvYuf8kJs5aIfaBiPZLqrcIEhpUzCvGm4IANv5K3DUMeKWACV7T8DTtOcpEwvkfeCXM0rmeYI6DkUexI3Q3Ngdvx/bQ37A34hDTWx6lPWUKrKjbndII9kUeZqJnsOMwmCfyo89Ho05A01UfH3gfJK29yTYutxqDNSZgo9EhRrP7kDF6ymghv6BBhJiYWeKfvVUgqzoWY6Yuxq+b9uH+k5egF/7TYH1ct3gI64e2cPf0R0ZmFjr3U8XVm1YoK6/E6QtmjN+ug8Z48MgOPr6BiIqOxeadR2Dn4IqQsCg4cDyhMXIGlHUmg04OKmcvm6PD/wzEzn0nERgcDo6bD6bMXYnjZ0zZ3D0GaWHrrmN4+MwBVo/smKJ81NgEf/tRASY37uFdTBzsndwxSNkAoyYtFL7osdOWorf8CAbSGT+vxenzZvjjyk38pbM8+wgEG5VfUAQ6VfceOStoatW1VSAR5UQny9WEG8yBRr4SismQ38Qz17vVugQBhPwhD1OfYEvIDmi56DO/C1k6lilWbDrPPG8Gmmk+s1FRUym6hBbrnj4B+HsXRXDcvBmtj18g/tpZHo9sXgnHXjO/hx96KcP6EV+MCjrMblmjp5wOKkQsGQJJT1lt9qKILjklDR37DIOji6dgmMTrY5uX+O9uQ/A+PhmlpeXoKaONlRt2N6IlEOUXFqFjb1U8snkp7M/OycOPP6lj/9FzwjaquHn54z87ygl1pHHTl0FdfzriEpKFdFnZuejaXx37j/0hbLO8b4PveyqL0Qk7m6m0GSQCXhTRPRd7kTnRhjiqQs5eiXld6aWSe94ofDcORR3DsXcnmSjaG3kIm0KMsNh/BdNTlJyGY6C9IhMv8/wWwzThOgqq+V/64zQbZg0NdlTFy6yGFyuYu6Xr9j3HoaA2DvUiMl195AwsWL5ZONTUzBI95UbgQ4l4GsQlUwv0kh+B7Nx8Ia0AJKbmfABHRMWgU19V2NiJ6zlx8ck4fOIiZixYg9FTFkNFZzL6KOghKTUDb96GshPB2dVLyFe0QiZ0pz5quGP1RNjsyPHCXzsrMDEibARQUlqOvgp62HOYHy3XGz8fv27aI0rC6ivW7oSC6jjhiUNiZsbPaxrRtdTQbpAIGHNruYgojmSeVxIPq9+uY8AhNzwpp9ouI9lJQfVxHpMx+/UCrAncCEo1sEl/IWY2+xb4Y8mbXzDglSLj4ZbDt3oEc7XmSsqohsEsyCgbYMmqbVj4r81MHxk83BCDVEYjOzePsSGQ9JDVQUaWeAigvSBxcvViX66c6lis334Ql65aMOun20BNpKZn4ZWjK77vMRQBQWESHyMhKbURSKwfv8I/ug1FYLD4GF41D8rak7Bm6wHGS3/Cz1ixZkcjvs6u3vhLJzn4+AUhL7+QidenLxwb0bXU0C6QkMhprpCzjPwk5IbPqsxiaZBUL+WViUV+iS6iOAqm8WZY+mYly13ZFLwNrzIdQEG/9hRS3jr3U8P8peuxbPV2LF21DctWb8PCFZvxz14qTPYT36ZActHkFjtJcvIKhNO3dJKQFaI/YQE0DWah+EODpebq4Y0feqsgOTUTPn5v2Uni6vFayFe0QicJiRvRk8Th40ni6fNGlJR/kijqgXQiKjS3JJBwq6uZnmK09wQuX7sDWZUxIMumraXVIKHg2ySvGbDLtAdZNhuCtuBK3FXYZrxkSi3FZtqSqUau/aSyZPjm+8Mr14fpKJRP8rnFaM8J9FXQRUWF+GaQeUtK6uKVW9kUV2/clXiSkPVBX7+oX6UlkJDJSRbL+m18RVnwDA8ev2AgiY1PRkFBETr1U2OKqaBfcCWdJCUtEz/0UsF1i/uCZmRm5zCxdkBEr6BOr9cB+K+Ocnhqyz8V9JoACdEePXUZ/RT1mLJ74PfzQt5tqbQaJIffHUcPu/64mWzJRAQF58ikpcw1CtJN9ZkNxyzntsz9p9OSb0BGZTSWr90pkfcmo8Po8pMa+5rMb9/Hj/3VkZ6ZLUZLVsl/dJTF8TMmCA6LgrfvW6SlZaDrAHVcMbvLaMMjo/Fdj6F48sKB3dO5On/ZJpB1YmvvwqyQ8ya3IDtsNLoO0ERY5HtGt+uQMTp8PxAnzpoyPwmJnkW/bMXl63dRV1vHvnqDyQuZSOK4+zB9iSwRUsLvWD1FUkoaWw+ZyaRjlX/8ELTGzmlk4gseKiY2EX3lddF9oAZbl6C9LddWg+REzBkMsh8MyxRrlt9K6QFzfRcyscKr44Gyz6iQCBEUcrQJsuopm41SAIhWUimoLgCZ0IKSW5UnluAkaG/uSsdyl/7qsHNwk0jm4vYanfoMA8f9NR4/fQmZYWORlcPXUQQDyDG1aecRZr107KWCOYs3IDc3D/Jq43DjzkNGRuZuX0VdZu4KxkW/T4DGyJn4rvsQppuQxXHw2DnIDhuDiHexjIwcZLsPGqPHIG1msvYcpMVON1dPfuzrmR0H/RT02fhuA7QQFRMHihut3XoQnfsNRx95HSZKR09ejLiEJMHUGD9zOdZu2Se8/7SiZzgfU+b88mlzq+/bDRJ1Fz3M91ssNhEnx42dLJSBtj1sF0a5jwN5U59n2LGTRo2jjWk+c8RSHl1zPbDIfznzh1Dq4uYQI+yO2I9hzpog51pbCsnb3LyCJjUmCi6SAkfHexWXy0SAqFdTdC4SEeERMSgqKmEOKfIxCAJ8JLry8wtB/hjRQv2v/QLxVkQ5pfUQvWghy4lOqajouEYe3bz8IoRFRCMlNRO1tQ2J4+S2d/P0RWh4tCgrVi8q/oCSUslJ6dHv4xngrT4x9Rsxaaah3SAhr+k079l4nm6LFxkvmYVjl/mK5ZbouBqw2AwF/UgEyTsoMw+rSfw1TPaeyZKTXuf7Md2GkowonkPWDimtFAeiMMCpmLMIKRLX6pt5DmlXEztASivpJJ+a+k2QS2xuN0goHZGcX/IOSuhm2w+/he1DeFEkKDNtof8y9gMumnF5wCqQF9Ujl+94okw0GkPeWMp/JV/J2ZgLwsVRIJHMZWl2mnBL2l3JyMxhpwh5eD+ntBsk2q6jMNV7Np6k2eBJ+jOEFofhbUEglByHY0so32bPq8pn0V966Qml/HzV6JIY5jdZ6LcMtxLvQM5BiYkYiv8EFYaA0gk0OLrS/NbPeasfx5JIdHD2YGL1c9i1GySkk8zzXSQ2N4kQAsnGEH4wLbU8DQbuhuzFJ5bxFa2Y0ljwATYLWZXZOB59GiSe6GQii4lSB87HXkZLvhixiaU3X3QH2g0SgXUj6tsgn4coSEhpJROZvK7xpfyIZkhRKEtCIs8rWUQ3Ei1YegFlzztkOyG1Iu2LPrCUedt3oA0gMWYm8J0UKzETuDmQ0HJ2hO1hegdFdgkUf8ReQv9X8jj3/iISyxIh4zCEpQ+QiKIffpnEXUNAYet/M9z2R5aOaOsOtBoklJ1GSua9lAcg0SFjPxTjPaeAsskEhSLBvW0HYsXb1YIm9iMrihRTsG6811R2JedbHpfvnyDwUHbbAr8lLKJM6Ywkdlxy3IU8pJV/7w60GiSUkSZrPxROWRyU8EphmWzF/B+izrH0igz2UwrHbI7YU9G/nKAfce0LP8TESz6XH2H1yvXGjYRbLCWSBpAeYpVyn/0mh6wfafk2dqBFkFCMhZKIKBWAPKzF1W1LAGruMSlNscuL3riVeJuJojJeGctxpRNrf8Th5oZK+77iDrQIElrLvphDWBi0HBm8zD91acGloTDwGQ9Vd21M85+Dib7ToeSmjin+sxHPlf7E80/d7M9g1iqQ8Op5oL8vUShDzTT+On4L24s94QdgkXS3yf+w9CXml/JseQdaBZKW2Ugp/j/vwP8Cdof1a0oLsgYAAAAASUVORK5CYII=;" parent="1" vertex="1">
          <mxGeometry x="470" y="291.5" width="137" height="37" as="geometry" />
        </mxCell>
        <mxCell id="tAp40WdVH69ufv_q9evl-10" value="Build &lt;br&gt;Pass" style="rhombus;whiteSpace=wrap;html=1;" parent="1" vertex="1">
          <mxGeometry x="520" y="160" width="80" height="80" as="geometry" />
        </mxCell>
        <mxCell id="tAp40WdVH69ufv_q9evl-11" value="" style="endArrow=classic;html=1;entryX=0;entryY=0.5;entryDx=0;entryDy=0;exitX=1;exitY=0.5;exitDx=0;exitDy=0;" parent="1" source="tAp40WdVH69ufv_q9evl-7" target="tAp40WdVH69ufv_q9evl-10" edge="1">
          <mxGeometry width="50" height="50" relative="1" as="geometry">
            <mxPoint x="350" y="200" as="sourcePoint" />
            <mxPoint x="290" y="210" as="targetPoint" />
          </mxGeometry>
        </mxCell>
        <mxCell id="tAp40WdVH69ufv_q9evl-12" value="" style="edgeStyle=segmentEdgeStyle;endArrow=none;html=1;exitX=1;exitY=0.5;exitDx=0;exitDy=0;rounded=0;endFill=0;" parent="1" source="tAp40WdVH69ufv_q9evl-10" target="tAp40WdVH69ufv_q9evl-13" edge="1">
          <mxGeometry width="50" height="50" relative="1" as="geometry">
            <mxPoint x="400" y="390" as="sourcePoint" />
            <mxPoint x="720" y="350" as="targetPoint" />
          </mxGeometry>
        </mxCell>
        <mxCell id="tAp40WdVH69ufv_q9evl-13" value="Email" style="outlineConnect=0;fontColor=#232F3E;gradientColor=none;strokeColor=#232F3E;fillColor=#ffffff;dashed=0;verticalLabelPosition=bottom;verticalAlign=top;align=center;html=1;fontSize=12;fontStyle=0;aspect=fixed;shape=mxgraph.aws4.resourceIcon;resIcon=mxgraph.aws4.email;" parent="1" vertex="1">
          <mxGeometry x="750" y="346" width="60" height="60" as="geometry" />
        </mxCell>
        <mxCell id="tAp40WdVH69ufv_q9evl-18" value="" style="endArrow=none;html=1;" parent="1" edge="1">
          <mxGeometry width="50" height="50" relative="1" as="geometry">
            <mxPoint x="780" y="490" as="sourcePoint" />
            <mxPoint x="780" y="430" as="targetPoint" />
          </mxGeometry>
        </mxCell>
        <mxCell id="tAp40WdVH69ufv_q9evl-19" value="" style="endArrow=none;html=1;startArrow=none;" parent="1" source="tAp40WdVH69ufv_q9evl-20" edge="1">
          <mxGeometry width="50" height="50" relative="1" as="geometry">
            <mxPoint x="620" y="540" as="sourcePoint" />
            <mxPoint x="780" y="490" as="targetPoint" />
          </mxGeometry>
        </mxCell>
        <mxCell id="tAp40WdVH69ufv_q9evl-21" value="Send email to &lt;br&gt;Dev Team" style="text;html=1;resizable=0;autosize=1;align=center;verticalAlign=middle;points=[];fillColor=none;strokeColor=none;rounded=0;sketch=1;opacity=40;" parent="1" vertex="1">
          <mxGeometry x="690" y="460" width="90" height="30" as="geometry" />
        </mxCell>
        <mxCell id="tAp40WdVH69ufv_q9evl-22" value="" style="endArrow=none;html=1;dashed=1;entryX=0.5;entryY=1;entryDx=0;entryDy=0;" parent="1" target="tAp40WdVH69ufv_q9evl-7" edge="1">
          <mxGeometry width="50" height="50" relative="1" as="geometry">
            <mxPoint x="276" y="310" as="sourcePoint" />
            <mxPoint x="275.5" y="225.5" as="targetPoint" />
          </mxGeometry>
        </mxCell>
        <mxCell id="tAp40WdVH69ufv_q9evl-23" value="" style="endArrow=classic;html=1;entryX=0;entryY=0.5;entryDx=0;entryDy=0;" parent="1" target="tAp40WdVH69ufv_q9evl-8" edge="1">
          <mxGeometry width="50" height="50" relative="1" as="geometry">
            <mxPoint x="278" y="310" as="sourcePoint" />
            <mxPoint x="341" y="308.99199999999996" as="targetPoint" />
          </mxGeometry>
        </mxCell>
        <mxCell id="tAp40WdVH69ufv_q9evl-28" value="" style="endArrow=classic;html=1;entryX=0;entryY=0.5;entryDx=0;entryDy=0;exitX=1;exitY=0.5;exitDx=0;exitDy=0;" parent="1" source="tAp40WdVH69ufv_q9evl-8" target="tAp40WdVH69ufv_q9evl-9" edge="1">
          <mxGeometry width="50" height="50" relative="1" as="geometry">
            <mxPoint x="288" y="320" as="sourcePoint" />
            <mxPoint x="360" y="320" as="targetPoint" />
          </mxGeometry>
        </mxCell>
        <mxCell id="tAp40WdVH69ufv_q9evl-20" value="" style="shape=image;html=1;verticalAlign=top;verticalLabelPosition=bottom;labelBackgroundColor=#ffffff;imageAspect=0;aspect=fixed;image=https://cdn4.iconfinder.com/data/icons/basic-ui-2-line/32/people-group-team-peoples-friend-128.png;sketch=1;fillColor=#666666;strokeColor=#999999;opacity=40;" parent="1" vertex="1">
          <mxGeometry x="662" y="500" width="28" height="28" as="geometry" />
        </mxCell>
        <mxCell id="tAp40WdVH69ufv_q9evl-30" value="" style="edgeStyle=elbowEdgeStyle;elbow=horizontal;endArrow=classic;html=1;exitX=1;exitY=0.5;exitDx=0;exitDy=0;rounded=0;entryX=1;entryY=0.5;entryDx=0;entryDy=0;" parent="1" source="tAp40WdVH69ufv_q9evl-9" target="tAp40WdVH69ufv_q9evl-31" edge="1">
          <mxGeometry width="50" height="50" relative="1" as="geometry">
            <mxPoint x="260" y="340" as="sourcePoint" />
            <mxPoint x="520" y="440" as="targetPoint" />
            <Array as="points">
              <mxPoint x="690" y="370" />
            </Array>
          </mxGeometry>
        </mxCell>
        <mxCell id="tAp40WdVH69ufv_q9evl-31" value="" style="shape=image;verticalLabelPosition=bottom;labelBackgroundColor=#ffffff;verticalAlign=top;aspect=fixed;imageAspect=0;image=data:image/png,iVBORw0KGgoAAAANSUhEUgAAAOEAAADhCAMAAAAJbSJIAAAAdVBMVEX///8AAABfX1+Hh4cjIyOsrKx2dnaDg4PIyMjw8PA+Pj74+Pji4uJqamqvr6/c3NzOzs6bm5uRkZExMTHn5+fBwcHx8fGmpqYZGRm3t7dCQkJUVFTX19cLCwtLS0tlZWUpKSmQkJB8fHxZWVlOTk44ODgcHBwNLSEuAAAHEklEQVR4nO2d2WKiMBhGwaWKgIKCiuCCtn3/RxxJQJIQlH3pfOdqipA/BwhkZRQFAAAAAAAAAAAAAAAAAAAAAAAAAAAAAAAAoGcOi2kfLA6dGT7Ufnh0ZjjpyXACQxjCEIZ/0PB8m3XB7dyb4bWjeNfeDLuK2HU8GI4/HgzHH++/M9zuW4y032bidQIX8aG6rQVyaZOwZ8PnH18txflKQ/RsqKpWC1EsPkTPhuq08SBTMUTPhurOaDSEscuG6NlQVe0GI9iqLETfhupFayh97aIO01BVvUaS95gUh2D4pYoZaih1wlcmXifwEedsjtRlzbSXXGpzSbwuECI6P2ym7rWSvrNJ/TjSeB2Qibhl83UMKiccHNmEtrnxWicbMZhJs1YS7kTN0hM1BEPh9lo5FVJ1Vnk3+zAMhUdE+YGwA3c898AaiKGiX9ks+uWajXufPfiqF4jXJnkR2Ve1WqrZ6HJHihWH4Riy1a0nZuEETfawbOVvQIZMlZlQrNloccdIKvCDMlSMG5vdIs3GKXvATdYIG5ahooRcjjcf0tpwZySsEK8NPkQMzmym3zcbubv6nFMbGpyh0N445TcbtRO7Y26H1gANhaf/OmevNbdX/ttliIaKzs25meiyXbiG4EO2S/F4DVMo4qcLVOwyF4/XKMUi8jVpsZBxRfVDTX2ohu8elGUet0M2VDZcszF9/XMv+dmnV+aQDRVlwbrEvcZJby9l0Wi8higTka90Rs1GviFYpOo6bENF5xoO/oZrCJpv3hEV4zVCyYh8s5GlYA/y4A2V/bfU77toN8DwDcWyRynelTMGQ+H5qZYbjRuFodBszGkINhmvFtUiMh3aJbvFx2KY1kXLzmwYj2Hca1x6eGpEhlGbUNpWbCteVepErDIvZVyGY4gHw/HHg+H448Fw/PFgOP54MBx/vDTi31/ZtfOanRgsx/B2vRlGfG+X7S240C3bZ0Y4+jGMOF/tZVPzgxP21sH8FeL0Z0g4+qFXfVYii+Fur6LcEAzjojmZzl2j2n2rO8t5eF3lJz4Iw5fpdWG7llGkx0I3LNeemj/nj4l2Z+h/zEvK8eSb96ltH9ae6y6tYBNYS9f11gfbnt5N/yS9HXPwOzPc2JfP2Wmci/1xKLVJdCt8U2AaZxVa5bvomrC0H58LT13OD7sXuxeOt2jvYq4WXpX51C1geFu/2at59redVAlLsbe8qfxNXYrf69Sz2lx5Wxfdsda26Zc3/fVNe205vRa5cjiB5R3CxeS0mx1zpI6z3WmyCA+uFTRdre0cfa85jmMYmyAINobx/Le2H9HVAgAAAAAYN89a9nzuBXz9azl/Ips5GkQ/0PXnijuXQyejWOymtRv01NRwwleTcGczeaBzgiUtVzqtnf477yOvdLb7Xdy86+7zsykLWdYi6Oy17Ny1eKEw/SOvQzKUpR1xbuMTOO/Qb5k8JFmI5+dl7qxTLcPqa+ArIk6IjYhX/nzJMxSorOH7u1RqGH9CoiPiLFxdR9OczZp0ESfLfpM5lsIhV27zXqPs6TR3I/lbT5Nf6fE2x43PR4e9UnsaMZ1GGdzSdc2JIf9wcFS5OC2dwi1NDZkNdNVGd7368cR07o2QTmtODI/cIfe3hkInRsZQfiJahDwndjk/vlalsWdgr9YzpGMlzXzhpwikDzhvwdLLkD0F27qG5Cs43T1OZ9lylpKuLGSmO6t1DUlJLP4Ng7qQa5j3qZ3UMB0NO4zNkA4g5nQHEkM6lvEaDjum24S9S92lzX/3Lo+tcIk4iOHXnT3n9KXn1jEkNaLu3vkbesP9LDXJdSSGV43sEb+jSQ3oqNQwpJ/b6nCshql07czpmhucJYYTWoehz1v6vj6UNDwxG+iK4lvjHvmIFe8Zs1g5NtykZdWP1coZ/hgbimXHy4m7ex1GiCP559cdFBsqZNFhZE5d7bKGGb7bt+JYixlIFBNDKxEyk6tZz/DY/VCOFV7YcbNzvDkxpI+/tUKfOVG9tZbhpaexKt2xXDsulHFZfBmSt8MsXnwfVZprGN66LYMZbPYivgwVYk7vZlIBKmd4NBPuh05n0kihRY3mIzVkFnGTF2M5w5MyJAyST3onpYbKq5jSyk05w5UyKEg+aWuDMXx9+NNIdxIOHI3hTWqYNJrYv4QDx2Kok3zSzjbWMP5+SzyzdkyG4rQXNp+sITW/xHuNyFBTZ3zP3i8jwhrSdlbSVzweQy0asLDTyxjQ/uG404Iz1N0nyX6jMUy6Ph9b75l9bxvPTUzWl3CGHKMx5L/SlTBLfv4DhsJ3rCir1037FwwVPTPAx/Rk/gnDaHiU+YzXkfufWEgdVdpLJTN0ZYbkBN6azG8lHNcOp2aYmcvrGE+kw0TRD2Jnki7bqOUmAQAAAAAAAAAAAAAAAAAAAAAAAAAAAAAAANAv/wAKPFWdFFI2JQAAAABJRU5ErkJggg==;" parent="1" vertex="1">
          <mxGeometry x="459" y="380" width="61" height="61" as="geometry" />
        </mxCell>
        <mxCell id="tAp40WdVH69ufv_q9evl-32" value="" style="endArrow=none;html=1;dashed=1;entryX=0;entryY=0.5;entryDx=0;entryDy=0;" parent="1" target="tAp40WdVH69ufv_q9evl-31" edge="1">
          <mxGeometry width="50" height="50" relative="1" as="geometry">
            <mxPoint x="360" y="408" as="sourcePoint" />
            <mxPoint x="459" y="379.5" as="targetPoint" />
          </mxGeometry>
        </mxCell>
        <mxCell id="tAp40WdVH69ufv_q9evl-33" value="Email" style="outlineConnect=0;fontColor=#232F3E;gradientColor=none;strokeColor=#232F3E;fillColor=#ffffff;dashed=0;verticalLabelPosition=bottom;verticalAlign=top;align=center;html=1;fontSize=12;fontStyle=0;aspect=fixed;shape=mxgraph.aws4.resourceIcon;resIcon=mxgraph.aws4.email;" parent="1" vertex="1">
          <mxGeometry x="344" y="411" width="30" height="30" as="geometry" />
        </mxCell>
        <mxCell id="tAp40WdVH69ufv_q9evl-35" value="" style="endArrow=none;html=1;startArrow=none;" parent="1" source="tAp40WdVH69ufv_q9evl-37" edge="1">
          <mxGeometry width="50" height="50" relative="1" as="geometry">
            <mxPoint x="200" y="552" as="sourcePoint" />
            <mxPoint x="360" y="470" as="targetPoint" />
          </mxGeometry>
        </mxCell>
        <mxCell id="tAp40WdVH69ufv_q9evl-36" value="Send email to &lt;br&gt;Dev Team" style="text;html=1;resizable=0;autosize=1;align=center;verticalAlign=middle;points=[];fillColor=none;strokeColor=none;rounded=0;sketch=1;opacity=40;" parent="1" vertex="1">
          <mxGeometry x="236" y="469" width="90" height="30" as="geometry" />
        </mxCell>
        <mxCell id="tAp40WdVH69ufv_q9evl-37" value="" style="shape=image;html=1;verticalAlign=top;verticalLabelPosition=bottom;labelBackgroundColor=#ffffff;imageAspect=0;aspect=fixed;image=https://cdn4.iconfinder.com/data/icons/basic-ui-2-line/32/people-group-team-peoples-friend-128.png;sketch=1;fillColor=#666666;strokeColor=#999999;opacity=40;" parent="1" vertex="1">
          <mxGeometry x="260" y="500" width="30" height="30" as="geometry" />
        </mxCell>
        <mxCell id="tAp40WdVH69ufv_q9evl-48" value="" style="endArrow=classic;startArrow=classic;html=1;" parent="1" edge="1">
          <mxGeometry width="50" height="50" relative="1" as="geometry">
            <mxPoint x="70" y="332" as="sourcePoint" />
            <mxPoint x="145" y="332" as="targetPoint" />
          </mxGeometry>
        </mxCell>
        <mxCell id="tAp40WdVH69ufv_q9evl-49" value="" style="shape=image;html=1;verticalAlign=top;verticalLabelPosition=bottom;labelBackgroundColor=#ffffff;imageAspect=0;aspect=fixed;image=https://cdn4.iconfinder.com/data/icons/basic-ui-2-line/32/people-group-team-peoples-friend-128.png;sketch=1;fillColor=#666666;strokeColor=#999999;opacity=40;" parent="1" vertex="1">
          <mxGeometry x="38" y="317" width="30" height="30" as="geometry" />
        </mxCell>
        <mxCell id="tAp40WdVH69ufv_q9evl-50" value="Developers &lt;br&gt;Push / Pull Code" style="text;html=1;resizable=0;autosize=1;align=center;verticalAlign=middle;points=[];fillColor=none;strokeColor=none;rounded=0;sketch=1;opacity=40;" parent="1" vertex="1">
          <mxGeometry x="4" y="350" width="99" height="32" as="geometry" />
        </mxCell>
      </root>
    </mxGraphModel>
  </diagram>
</mxfile>
